<svg width="121" height="42" viewBox="0 0 121 42" fill="none" xmlns="http://www.w3.org/2000/svg"
     id="icon-cap-alert-full">
    <rect y="0.0646973" width="121" height="41.3618" fill="#ED1B24"/>
    <path fill-rule="evenodd" clip-rule="evenodd"
          d="M36.4157 19.8727C34.3014 16.6524 31.8755 14.2904 28.759 12.4178C27.1452 11.4481 25.5843 10.7627 23.5148 10.1147L22.2175 9.70841L20.6557 15.5776L21.5707 15.8407C25.2549 16.8998 28.1616 18.876 30.5477 21.9435C31.2407 22.8344 32.3395 24.7542 32.7579 25.805C34.1992 29.425 34.4435 32.9625 33.5101 36.6978L33.2774 37.6292L39.0932 39.1984L39.3804 37.9354C39.5383 37.2409 39.7287 36.2627 39.8033 35.7618C40.4456 31.4521 39.812 26.857 38.0289 22.8937C37.701 22.165 36.7441 20.3729 36.4157 19.8727ZM27.2908 24.5136C25.5178 22.1635 23.019 20.5024 20.1467 19.7644L19.5822 19.6194L18.0396 25.4164L18.6994 25.6129C20.672 26.2008 22.0811 27.2761 23.0137 28.9055C23.9463 30.5348 24.165 32.3034 23.6833 34.3206L23.5222 34.9952L29.2712 36.5463L29.4637 35.8412C30.528 31.9447 29.7202 27.7336 27.2908 24.5136Z"
          fill="white"/>
    <path fill-rule="evenodd" clip-rule="evenodd"
          d="M9.12293 3.45565C9.15594 3.99501 9.30891 6.69627 9.46282 9.45857C9.61664 12.2209 9.84614 16.332 9.97276 18.5945C10.0994 20.8569 10.254 23.6875 10.3164 24.8844L10.4299 27.0608H15.3657L15.4072 26.8455C15.43 26.7271 15.494 25.7478 15.5492 24.6692C15.6628 22.4531 15.9664 17.057 16.4482 8.69106C16.6285 5.55921 16.7761 2.87937 16.7761 2.73597V2.4751H9.06291L9.12293 3.45565Z"
          fill="white"/>
    <path d="M17.0885 33.1349C17.0885 35.4778 15.2056 37.3771 12.8829 37.3771C10.5602 37.3771 8.67725 35.4778 8.67725 33.1349C8.67725 30.7919 10.5602 28.8926 12.8829 28.8926C15.2056 28.8926 17.0885 30.7919 17.0885 33.1349Z"
          fill="white"/>
    <path d="M65.6142 17.5468H59.7826C59.7048 16.947 59.5454 16.4055 59.3044 15.9226C59.0633 15.4396 58.7445 15.0267 58.348 14.6839C57.9514 14.3412 57.481 14.0802 56.9367 13.901C56.4002 13.7141 55.8054 13.6206 55.1523 13.6206C53.9937 13.6206 52.9946 13.9049 52.1548 14.4736C51.3228 15.0423 50.6814 15.8641 50.2304 16.9392C49.7872 18.0142 49.5656 19.3152 49.5656 20.842C49.5656 22.4312 49.7911 23.7633 50.2421 24.8384C50.7008 25.9056 51.3423 26.7119 52.1665 27.2572C52.9985 27.7947 53.9821 28.0635 55.1173 28.0635C55.7549 28.0635 56.3341 27.9817 56.8551 27.8181C57.3838 27.6545 57.8465 27.4169 58.243 27.1053C58.6474 26.7859 58.9778 26.4003 59.2344 25.9485C59.4988 25.4888 59.6815 24.9708 59.7826 24.3943L65.6142 24.4294C65.5131 25.4888 65.206 26.5327 64.6928 27.561C64.1874 28.5893 63.4915 29.528 62.6051 30.3772C61.7187 31.2185 60.6379 31.8884 59.3627 32.387C58.0953 32.8856 56.6413 33.1349 55.0007 33.1349C52.8391 33.1349 50.903 32.6597 49.1924 31.7093C47.4895 30.7511 46.1444 29.3566 45.1569 27.526C44.1694 25.6953 43.6757 23.4673 43.6757 20.842C43.6757 18.209 44.1772 15.9771 45.1802 14.1464C46.1833 12.3157 47.5401 10.9252 49.2507 9.9748C50.9613 9.0244 52.8779 8.5492 55.0007 8.5492C56.4469 8.5492 57.7843 8.75174 59.0128 9.15683C60.2413 9.55413 61.3221 10.1384 62.2552 10.9096C63.1882 11.673 63.9463 12.6118 64.5295 13.7257C65.1127 14.8397 65.4742 16.1134 65.6142 17.5468Z"
          fill="white"/>
    <path d="M73.4752 32.8077H67.2704L75.3297 8.87639H83.0157L91.075 32.8077H84.8702L79.2602 14.9059H79.0736L73.4752 32.8077ZM72.6471 23.3894H85.6166V27.783H72.6471V23.3894Z"
          fill="white"/>
    <path d="M93.6467 32.8077V8.87639H103.514C105.302 8.87639 106.846 9.22694 108.144 9.92806C109.45 10.6214 110.457 11.5912 111.165 12.8377C111.872 14.0763 112.226 15.5175 112.226 17.1612C112.226 18.8127 111.865 20.2578 111.142 21.4964C110.426 22.7272 109.404 23.6815 108.074 24.3593C106.745 25.037 105.166 25.3759 103.339 25.3759H97.2507V20.8187H102.266C103.137 20.8187 103.864 20.6668 104.447 20.3629C105.038 20.0591 105.485 19.6346 105.788 19.0892C106.091 18.5362 106.243 17.8935 106.243 17.1612C106.243 16.4211 106.091 15.7823 105.788 15.2448C105.485 14.6995 105.038 14.2788 104.447 13.9828C103.856 13.6868 103.129 13.5388 102.266 13.5388H99.42V32.8077H93.6467Z"
          fill="white"/>
</svg>
