<svg width="42" height="42" viewBox="0 0 42 42" fill="none" xmlns="http://www.w3.org/2000/svg" id="icon-cap-alert">
    <path d="M0 0H42V42H0V0Z" fill="#ED1B24"/>
    <path fill-rule="evenodd" clip-rule="evenodd"
          d="M32.6188 20.0738C30.5806 16.9801 28.2422 14.7109 25.238 12.9119C23.6823 11.9804 22.1777 11.3218 20.1828 10.6993L18.9323 10.309L17.4268 15.9475L18.3087 16.2003C21.8602 17.2178 24.6621 19.1163 26.9622 22.0633C27.6302 22.9191 28.6895 24.7635 29.0928 25.773C30.4822 29.2507 30.7177 32.6492 29.8179 36.2376L29.5936 37.1325L35.1998 38.64L35.4766 37.4267C35.6289 36.7594 35.8123 35.8196 35.8843 35.3384C36.5034 31.1982 35.8926 26.7836 34.1738 22.9761C33.8578 22.276 32.9353 20.5544 32.6188 20.0738ZM23.8227 24.5323C22.1136 22.2746 19.7049 20.6788 16.9361 19.9698L16.392 19.8304L14.9049 25.3997L15.5409 25.5885C17.4425 26.1532 18.8008 27.1863 19.6998 28.7516C20.5987 30.3169 20.8096 32.016 20.3453 33.9538L20.1899 34.6019L25.7317 36.0921L25.9173 35.4148C26.9432 31.6713 26.1646 27.6258 23.8227 24.5323Z"
          fill="white"/>
    <path fill-rule="evenodd" clip-rule="evenodd"
          d="M6.30962 4.30202C6.34145 4.82017 6.4889 7.41527 6.63726 10.069C6.78554 12.7227 7.00677 16.6723 7.12882 18.8459C7.25087 21.0194 7.39996 23.7387 7.46008 24.8886L7.56947 26.9794H12.3274L12.3674 26.7726C12.3894 26.6588 12.451 25.718 12.5043 24.6818C12.6138 22.5528 12.9064 17.3688 13.3709 9.33166C13.5447 6.3229 13.6869 3.74839 13.6869 3.61062V3.36H6.25176L6.30962 4.30202Z"
          fill="white"/>
    <path d="M13.9881 32.8148C13.9881 35.0656 12.1731 36.8903 9.93406 36.8903C7.69507 36.8903 5.88 35.0656 5.88 32.8148C5.88 30.5639 7.69507 28.7393 9.93406 28.7393C12.1731 28.7393 13.9881 30.5639 13.9881 32.8148Z"
          fill="white"/>
</svg>
